
    <svg
      width="54"
      height="54"
      viewBox="0 0 54 54"
      fill="none"
      xmlns="http://www.w3.org/2000/svg"
    >
      <rect width="54" height="54" rx="27" fill="white" fillOpacity="0.16" />
      <rect
        x="4"
        y="4"
        width="46"
        height="46"
        rx="23"
        fill="white"
        fillOpacity="0.16"
      />
      <rect x="8" y="8" width="38" height="38" rx="19" fill="#00A870" />
      <path
        d="M29.7367 30.772H29.6727C29.5767 31.316 29.2727 31.7747 28.7607 32.148C28.2594 32.5107 27.5874 32.692 26.7447 32.692C26.0834 32.692 25.47 32.5693 24.9047 32.324C24.35 32.0787 23.8647 31.716 23.4487 31.236C23.0434 30.7453 22.7234 30.1427 22.4887 29.428C22.254 28.7133 22.1367 27.8867 22.1367 26.948C22.1367 26.0093 22.254 25.1827 22.4887 24.468C22.734 23.7427 23.0754 23.1347 23.5127 22.644C23.95 22.1533 24.4727 21.78 25.0807 21.524C25.6887 21.268 26.366 21.14 27.1127 21.14C28.1154 21.14 28.9687 21.3587 29.6727 21.796C30.3767 22.2333 30.9314 22.8627 31.3367 23.684L29.6247 24.692C29.422 24.212 29.118 23.812 28.7127 23.492C28.318 23.172 27.7847 23.012 27.1127 23.012C26.2807 23.012 25.614 23.268 25.1127 23.78C24.622 24.2813 24.3767 25.028 24.3767 26.02V27.812C24.3767 28.7933 24.6274 29.54 25.1287 30.052C25.63 30.564 26.302 30.82 27.1447 30.82C27.4754 30.82 27.7847 30.7827 28.0727 30.708C28.3607 30.6227 28.6114 30.5 28.8247 30.34C29.038 30.18 29.2087 29.9827 29.3367 29.748C29.4647 29.5133 29.5287 29.236 29.5287 28.916V28.196H27.3367V26.42H31.5607V32.5H29.7367V30.772Z"
        fill="white"
        fillOpacity="0.8"
      /> 
    </svg>
 
